<svg width="298" height="85" viewBox="0 0 298 85" fill="none" xmlns="http://www.w3.org/2000/svg">
<path d="M60.5939 56.1162L52.613 55.8537C54.3922 55.5047 56.1965 55.299 58.0085 55.2386C58.9827 55.2386 59.8595 53.8133 59.9119 52.9507L60.4965 43.0267L46.8502 53.1157C46.4007 53.4174 45.8657 53.5651 45.3253 53.5367C44.7849 53.5083 44.2682 53.3053 43.8527 52.9582L28.4754 38.8636L27.5237 51.0154C27.5016 51.7309 27.7276 52.4319 28.1634 52.9994C28.5992 53.5669 29.2178 53.9658 29.9142 54.1284C32.377 54.363 34.8207 54.7665 37.2282 55.3361L25.8451 55.006C24.3014 55.006 23.1024 54.0084 23.1848 52.8907L25.1332 28.5571C25.2306 27.4694 26.542 26.8168 28.0483 27.1393L39.1241 29.4797C36.7112 29.4667 34.3023 29.2838 31.9151 28.9321C31.5171 28.8591 31.1061 28.9198 30.746 29.1046L44.5347 42.9592C44.924 43.3423 45.4284 43.5865 45.97 43.6543C46.5117 43.722 47.0606 43.6096 47.5322 43.3343L59.9719 34.9105C59.8007 34.7382 59.5856 34.6163 59.3499 34.558C57.5549 34.059 55.8012 33.4221 54.1042 32.6527L61.9353 34.3029C62.3725 34.3879 62.7668 34.622 63.051 34.9653C63.3352 35.3086 63.4918 35.7399 63.494 36.1857L62.3774 54.6235C62.3337 55.0561 62.1226 55.4545 61.7894 55.7334C61.4561 56.0124 61.027 56.1497 60.5939 56.1162Z" fill="#D62E00"/>
<path fill-rule="evenodd" clip-rule="evenodd" d="M43.3374 84.9646C66.7539 84.9646 85.7367 65.9818 85.7367 42.5653C85.7367 19.1488 66.7539 0.166016 43.3374 0.166016C19.9209 0.166016 0.93811 19.1488 0.93811 42.5653C0.93811 65.9818 19.9209 84.9646 43.3374 84.9646ZM43.3374 77.2977C62.5196 77.2977 78.0698 61.7475 78.0698 42.5653C78.0698 23.3831 62.5196 7.83288 43.3374 7.83288C24.1552 7.83288 8.60501 23.3831 8.60501 42.5653C8.60501 61.7475 24.1552 77.2977 43.3374 77.2977Z" fill="#D62E00"/>
<path d="M120.135 34.4446V39.7396H128.674V44.6617H120.135V50.4042H129.793V55.5128H113.759V29.336H129.793V34.4446H120.135Z" fill="#404040"/>
<path d="M160.482 34.4819C163.068 34.4819 165.118 35.2649 166.635 36.8311C168.176 38.3972 168.947 40.5724 168.947 43.3566V55.5128H162.608V44.2143C162.608 42.8719 162.247 41.8402 161.526 41.1193C160.83 40.3735 159.861 40.0006 158.618 40.0006C157.375 40.0006 156.393 40.3735 155.672 41.1193C154.976 41.8402 154.628 42.8719 154.628 44.2143V55.5128H148.289V44.2143C148.289 42.8719 147.928 41.8402 147.207 41.1193C146.511 40.3735 145.542 40.0006 144.299 40.0006C143.056 40.0006 142.074 40.3735 141.353 41.1193C140.657 41.8402 140.309 42.8719 140.309 44.2143V55.5128H133.932V34.7056H140.309V37.3158C140.955 36.4458 141.8 35.7621 142.845 35.2649C143.889 34.7429 145.069 34.4819 146.387 34.4819C147.953 34.4819 149.345 34.8175 150.563 35.4887C151.806 36.1599 152.776 37.117 153.472 38.3599C154.193 37.2164 155.175 36.2842 156.418 35.5632C157.661 34.8423 159.016 34.4819 160.482 34.4819Z" fill="#404040"/>
<path d="M193.02 44.7736C193.02 45.3702 192.983 45.9917 192.908 46.6381H178.478C178.577 47.9307 178.987 48.9251 179.708 49.6212C180.454 50.2924 181.361 50.628 182.43 50.628C184.021 50.628 185.127 49.9568 185.749 48.6144H192.536C192.188 49.9816 191.554 51.2122 190.634 52.306C189.739 53.3998 188.608 54.2574 187.241 54.8789C185.873 55.5004 184.344 55.8111 182.654 55.8111C180.616 55.8111 178.801 55.3761 177.21 54.506C175.619 53.6359 174.376 52.393 173.481 50.7771C172.586 49.1613 172.138 47.272 172.138 45.1092C172.138 42.9465 172.574 41.0571 173.444 39.4413C174.339 37.8254 175.582 36.5825 177.172 35.7124C178.763 34.8423 180.591 34.4073 182.654 34.4073C184.668 34.4073 186.457 34.8299 188.024 35.6751C189.59 36.5203 190.808 37.726 191.678 39.2921C192.573 40.8583 193.02 42.6854 193.02 44.7736ZM186.495 43.0956C186.495 42.0018 186.122 41.1317 185.376 40.4854C184.63 39.839 183.698 39.5159 182.579 39.5159C181.51 39.5159 180.603 39.8266 179.857 40.4481C179.136 41.0696 178.689 41.9521 178.515 43.0956H186.495Z" fill="#404040"/>
<path d="M202.761 38.1735C203.506 37.0299 204.439 36.135 205.557 35.4887C206.676 34.8175 207.919 34.4819 209.286 34.4819V41.2312H207.534C205.943 41.2312 204.749 41.5792 203.954 42.2753C203.158 42.9465 202.761 44.1397 202.761 45.855V55.5128H196.384V34.7056H202.761V38.1735Z" fill="#404040"/>
<path d="M211.066 45.1092C211.066 42.9465 211.501 41.0571 212.371 39.4413C213.266 37.8254 214.497 36.5825 216.063 35.7124C217.654 34.8423 219.469 34.4073 221.507 34.4073C224.117 34.4073 226.292 35.0909 228.033 36.4582C229.798 37.8254 230.953 39.752 231.5 42.238H224.714C224.142 40.647 223.036 39.8515 221.395 39.8515C220.227 39.8515 219.295 40.3114 218.598 41.2312C217.902 42.1261 217.554 43.4188 217.554 45.1092C217.554 46.7996 217.902 48.1048 218.598 49.0246C219.295 49.9195 220.227 50.367 221.395 50.367C223.036 50.367 224.142 49.5715 224.714 47.9805H231.5C230.953 50.4167 229.798 52.3308 228.033 53.723C226.268 55.1151 224.092 55.8111 221.507 55.8111C219.469 55.8111 217.654 55.3761 216.063 54.506C214.497 53.6359 213.266 52.393 212.371 50.7771C211.501 49.1613 211.066 47.272 211.066 45.1092Z" fill="#404040"/>
<path d="M255.457 34.7056V55.5128H249.081V52.6789C248.435 53.5987 247.552 54.3444 246.433 54.9162C245.34 55.4631 244.122 55.7366 242.779 55.7366C241.188 55.7366 239.784 55.3885 238.565 54.6925C237.347 53.9715 236.403 52.9399 235.732 51.5975C235.06 50.2551 234.725 48.6765 234.725 46.8618V34.7056H241.064V46.0041C241.064 47.3963 241.424 48.4776 242.145 49.2483C242.866 50.0189 243.836 50.4042 245.054 50.4042C246.297 50.4042 247.279 50.0189 248 49.2483C248.721 48.4776 249.081 47.3963 249.081 46.0041V34.7056H255.457Z" fill="#404040"/>
<path d="M266.414 38.1735C267.16 37.0299 268.092 36.135 269.211 35.4887C270.329 34.8175 271.572 34.4819 272.939 34.4819V41.2312H271.187C269.596 41.2312 268.403 41.5792 267.607 42.2753C266.812 42.9465 266.414 44.1397 266.414 45.855V55.5128H260.038V34.7056H266.414V38.1735Z" fill="#404040"/>
<path d="M297.242 34.7056L284.191 65.3944H277.33L282.103 54.8043L273.638 34.7056H280.76L285.571 47.7194L290.343 34.7056H297.242Z" fill="#404040"/>
</svg>
