<svg width="165" height="49" viewBox="0 0 165 49" fill="none" xmlns="http://www.w3.org/2000/svg">
<path d="M34.1762 32.014L29.7126 31.8672C30.7076 31.672 31.7168 31.557 32.7302 31.5232C33.2751 31.5232 33.7654 30.7261 33.7948 30.2436L34.1217 24.6932L26.4895 30.3359C26.2381 30.5046 25.9389 30.5872 25.6366 30.5713C25.3344 30.5554 25.0454 30.4419 24.813 30.2478L16.2127 22.3648L15.6804 29.1612C15.668 29.5614 15.7944 29.9534 16.0382 30.2708C16.2819 30.5882 16.6279 30.8113 17.0174 30.9023C18.3948 31.0335 19.7615 31.2591 21.108 31.5777L14.7416 31.3931C13.8782 31.3931 13.2076 30.8351 13.2537 30.21L14.3434 16.6005C14.3979 15.9922 15.1314 15.6272 15.9738 15.8076L22.1684 17.1165C20.8189 17.1093 19.4716 17.007 18.1365 16.8103C17.9138 16.7694 17.684 16.8034 17.4826 16.9068L25.1944 24.6555C25.4122 24.8697 25.6943 25.0063 25.9972 25.0442C26.3002 25.0821 26.6072 25.0192 26.8709 24.8652L33.8283 20.1539C33.7326 20.0576 33.6122 19.9894 33.4804 19.9568C32.4765 19.6777 31.4957 19.3215 30.5466 18.8911L34.9264 19.8141C35.1709 19.8616 35.3915 19.9926 35.5504 20.1846C35.7094 20.3766 35.7969 20.6178 35.7982 20.8671L35.1737 31.1792C35.1492 31.4211 35.0312 31.6439 34.8448 31.7999C34.6584 31.956 34.4184 32.0328 34.1762 32.014Z" fill="#D62E00"/>
<path fill-rule="evenodd" clip-rule="evenodd" d="M24.5247 48.1486C37.6213 48.1486 48.2382 37.5317 48.2382 24.4352C48.2382 11.3386 37.6213 0.72171 24.5247 0.72171C11.4281 0.72171 0.811279 11.3386 0.811279 24.4352C0.811279 37.5317 11.4281 48.1486 24.5247 48.1486ZM24.5246 43.8606C35.253 43.8606 43.9501 35.1635 43.9501 24.4351C43.9501 13.7068 35.253 5.00971 24.5246 5.00971C13.7962 5.00971 5.09918 13.7068 5.09918 24.4351C5.09918 35.1635 13.7962 43.8606 24.5246 43.8606Z" fill="#D62E00"/>
<path d="M67.371 20.1407V23.0375H72.0427V25.7304H67.371V28.872H72.6548V31.6669H63.8826V17.3458H72.6548V20.1407H67.371Z" fill="white"/>
<path d="M89.4446 20.1611C90.8591 20.1611 91.9811 20.5895 92.8107 21.4463C93.6539 22.3031 94.0755 23.4931 94.0755 25.0164V31.6669H90.6074V25.4856C90.6074 24.7512 90.4102 24.1867 90.0158 23.7923C89.635 23.3843 89.1046 23.1803 88.4246 23.1803C87.7446 23.1803 87.2074 23.3843 86.813 23.7923C86.4322 24.1867 86.2418 24.7512 86.2418 25.4856V31.6669H82.7737V25.4856C82.7737 24.7512 82.5765 24.1867 82.1821 23.7923C81.8013 23.3843 81.2709 23.1803 80.5908 23.1803C79.9108 23.1803 79.3736 23.3843 78.9792 23.7923C78.5984 24.1867 78.408 24.7512 78.408 25.4856V31.6669H74.9195V20.2835H78.408V21.7115C78.7616 21.2355 79.224 20.8615 79.7952 20.5895C80.3664 20.3039 81.0124 20.1611 81.7333 20.1611C82.5901 20.1611 83.3517 20.3447 84.0181 20.7119C84.6981 21.0791 85.2285 21.6027 85.6093 22.2827C86.0037 21.6571 86.541 21.1471 87.221 20.7527C87.901 20.3583 88.6422 20.1611 89.4446 20.1611Z" fill="white"/>
<path d="M107.246 25.7916C107.246 26.118 107.226 26.458 107.185 26.8116H99.2897C99.3441 27.5188 99.5685 28.0628 99.963 28.4436C100.371 28.8108 100.867 28.9944 101.452 28.9944C102.323 28.9944 102.928 28.6272 103.268 27.8928H106.981C106.79 28.6408 106.443 29.314 105.94 29.9125C105.451 30.5109 104.832 30.9801 104.084 31.3201C103.336 31.6601 102.499 31.8301 101.575 31.8301C100.459 31.8301 99.4665 31.5921 98.5961 31.1161C97.7257 30.6401 97.0457 29.9601 96.5561 29.076C96.0665 28.192 95.8217 27.1584 95.8217 25.9752C95.8217 24.792 96.0597 23.7583 96.5357 22.8743C97.0253 21.9903 97.7053 21.3103 98.5757 20.8343C99.4461 20.3583 100.446 20.1203 101.575 20.1203C102.676 20.1203 103.655 20.3515 104.512 20.8139C105.369 21.2763 106.035 21.9359 106.511 22.7927C107.001 23.6495 107.246 24.6491 107.246 25.7916ZM103.676 24.8736C103.676 24.2751 103.472 23.7991 103.064 23.4455C102.656 23.0919 102.146 22.9151 101.534 22.9151C100.949 22.9151 100.453 23.0851 100.045 23.4251C99.6501 23.7651 99.4053 24.2479 99.3101 24.8736H103.676Z" fill="white"/>
<path d="M112.575 22.1807C112.983 21.5551 113.493 21.0655 114.105 20.7119C114.717 20.3447 115.397 20.1611 116.145 20.1611V23.8535H115.186C114.316 23.8535 113.663 24.0439 113.228 24.4247C112.792 24.792 112.575 25.4448 112.575 26.3832V31.6669H109.086V20.2835H112.575V22.1807Z" fill="white"/>
<path d="M117.119 25.9752C117.119 24.792 117.357 23.7583 117.833 22.8743C118.322 21.9903 118.995 21.3103 119.852 20.8343C120.723 20.3583 121.715 20.1203 122.831 20.1203C124.259 20.1203 125.449 20.4943 126.401 21.2423C127.366 21.9903 127.999 23.0443 128.298 24.4043H124.585C124.272 23.5339 123.667 23.0987 122.77 23.0987C122.13 23.0987 121.62 23.3503 121.239 23.8535C120.859 24.3431 120.668 25.0504 120.668 25.9752C120.668 26.9 120.859 27.614 121.239 28.1172C121.62 28.6068 122.13 28.8516 122.77 28.8516C123.667 28.8516 124.272 28.4164 124.585 27.546H128.298C127.999 28.8788 127.366 29.9261 126.401 30.6877C125.435 31.4493 124.245 31.8301 122.831 31.8301C121.715 31.8301 120.723 31.5921 119.852 31.1161C118.995 30.6401 118.322 29.9601 117.833 29.076C117.357 28.192 117.119 27.1584 117.119 25.9752Z" fill="white"/>
<path d="M141.405 20.2835V31.6669H137.916V30.1165C137.563 30.6197 137.08 31.0277 136.468 31.3405C135.869 31.6397 135.203 31.7893 134.469 31.7893C133.598 31.7893 132.83 31.5989 132.163 31.2181C131.497 30.8237 130.98 30.2593 130.613 29.5249C130.246 28.7904 130.062 27.9268 130.062 26.934V20.2835H133.53V26.4648C133.53 27.2264 133.727 27.818 134.122 28.2396C134.516 28.6612 135.047 28.872 135.713 28.872C136.393 28.872 136.93 28.6612 137.325 28.2396C137.719 27.818 137.916 27.2264 137.916 26.4648V20.2835H141.405Z" fill="white"/>
<path d="M147.399 22.1807C147.807 21.5551 148.317 21.0655 148.929 20.7119C149.541 20.3447 150.221 20.1611 150.969 20.1611V23.8535H150.01C149.14 23.8535 148.487 24.0439 148.052 24.4247C147.616 24.792 147.399 25.4448 147.399 26.3832V31.6669H143.91V20.2835H147.399V22.1807Z" fill="white"/>
<path d="M164.265 20.2835L157.124 37.073H153.371L155.982 31.2793L151.351 20.2835H155.248L157.879 27.4032L160.491 20.2835H164.265Z" fill="white"/>
</svg>
